<?xml version="1.0" encoding="UTF-8"?>
<svg width="34px" height="22px" viewBox="0 0 34 22" version="1.1" xmlns="http://www.w3.org/2000/svg" xmlns:xlink="http://www.w3.org/1999/xlink">
    <title>Group</title>
    <g id="Page-1" stroke="none" stroke-width="1" fill="none" fill-rule="evenodd">
        <g id="Group" fill="#000000">
            <path d="M5.1277704,-2.07168062e-16 L28.8722296,2.07168062e-16 C30.6552671,-1.2037061e-16 31.3018396,0.185651222 31.9536914,0.534265408 C32.6055433,0.882879593 33.1171204,1.39445674 33.4657346,2.04630859 C33.8143488,2.69816044 34,3.34473292 34,5.1277704 L34,16.8722296 C34,18.6552671 33.8143488,19.3018396 33.4657346,19.9536914 C33.1171204,20.6055433 32.6055433,21.1171204 31.9536914,21.4657346 C31.3018396,21.8143488 30.6552671,22 28.8722296,22 L5.1277704,22 C3.34473292,22 2.69816044,21.8143488 2.04630859,21.4657346 C1.39445674,21.1171204 0.882879593,20.6055433 0.534265408,19.9536914 C0.185651222,19.3018396 3.43695448e-16,18.6552671 -5.91529111e-16,16.8722296 L1.38112041e-16,5.1277704 C-8.02470732e-17,3.34473292 0.185651222,2.69816044 0.534265408,2.04630859 C0.882879593,1.39445674 1.39445674,0.882879593 2.04630859,0.534265408 C2.69816044,0.185651222 3.34473292,1.2037061e-16 5.1277704,-2.07168062e-16 Z" id="Rectangle" opacity="0.149999991"></path>
            <g id="AD" transform="translate(6, 5)" fill-rule="nonzero">
                <path d="M1.20983289,12 C1.84242525,12 2.19825845,11.6761134 2.41966578,10.8987854 L3.02062852,9.07692308 L7.14038627,9.07692308 L7.74134902,10.9230769 C7.95484894,11.6842105 8.31068214,12 8.98281152,12 C9.67866312,12 10.1768296,11.5222672 10.1768296,10.8502024 C10.1768296,10.6072874 10.1372926,10.388664 10.0265889,10.0728745 L6.89525673,1.37651822 C6.55523834,0.421052632 6.00172002,0 5.06864629,0 C4.16720218,0 3.60577646,0.437246964 3.27366547,1.38461538 L0.15814809,10.0728745 C0.0553518316,10.3724696 0,10.6477733 0,10.8502024 C0,11.5546559 0.466536866,12 1.20983289,12 Z M3.54251722,7.18218623 L5.02120186,2.39676113 L5.0765537,2.39676113 L6.58686796,7.18218623 L3.54251722,7.18218623 Z" id="Shape"></path>
                <path d="M13.3967439,11.8461538 L16.5597057,11.8461538 C19.9836118,11.8461538 22,9.66801619 22,5.95951417 C22,2.25101215 19.9836118,0.16194332 16.5597057,0.16194332 L13.3967439,0.16194332 C12.6455405,0.16194332 12.2027258,0.631578947 12.2027258,1.43319838 L12.2027258,10.5668016 C12.2027258,11.3765182 12.6455405,11.8461538 13.3967439,11.8461538 Z M14.590762,9.82186235 L14.590762,2.17813765 L16.2750391,2.17813765 C18.3784087,2.17813765 19.5645194,3.52226721 19.5645194,5.96761134 C19.5645194,8.49392713 18.4100384,9.82186235 16.2750391,9.82186235 L14.590762,9.82186235 Z" id="Shape"></path>
            </g>
        </g>
    </g>
</svg>